<svg width="51" height="34" viewBox="0 0 51 34" fill="none" xmlns="http://www.w3.org/2000/svg">
<path d="M15.9929 0.593324C16.3685 0.213643 16.8805 0 17.4146 0H49C50.1046 0 51 0.89543 51 2V31.5143C51 32.6189 50.1046 33.5143 49 33.5143H16.7125C16.1628 33.5143 15.6373 33.288 15.2596 32.8887L1.32966 18.1628C0.5883 17.3791 0.602116 16.1486 1.36089 15.3817L15.9929 0.593324Z" fill="#A5ACB9"/>
<path d="M22.3776 7.80611C22.5423 7.64114 22.7379 7.51026 22.9533 7.42097C23.1687 7.33168 23.3995 7.28571 23.6326 7.28571C23.8658 7.28571 24.0966 7.33168 24.312 7.42097C24.5273 7.51026 24.723 7.64114 24.8877 7.80611L31.3289 14.2449L37.77 7.80611C37.9348 7.64129 38.1305 7.51055 38.3458 7.42135C38.5612 7.33215 38.792 7.28624 39.0251 7.28624C39.2582 7.28624 39.489 7.33215 39.7043 7.42135C39.9197 7.51055 40.1153 7.64129 40.2802 7.80611C40.445 7.97093 40.5757 8.16659 40.6649 8.38194C40.7541 8.59729 40.8 8.82809 40.8 9.06118C40.8 9.29427 40.7541 9.52508 40.6649 9.74043C40.5757 9.95577 40.445 10.1514 40.2802 10.3163L33.8414 16.7574L40.2802 23.1985C40.613 23.5314 40.8 23.9829 40.8 24.4536C40.8 24.9244 40.613 25.3758 40.2802 25.7087C39.9473 26.0416 39.4958 26.2286 39.0251 26.2286C38.5543 26.2286 38.1029 26.0416 37.77 25.7087L31.3289 19.2699L24.8877 25.7087C24.5549 26.0416 24.1034 26.2286 23.6326 26.2286C23.1619 26.2286 22.7104 26.0416 22.3776 25.7087C22.0447 25.3758 21.8577 24.9244 21.8577 24.4536C21.8577 23.9829 22.0447 23.5314 22.3776 23.1985L28.8163 16.7574L22.3776 10.3163C22.2126 10.1515 22.0817 9.95588 21.9924 9.74052C21.9031 9.52517 21.8572 9.29432 21.8572 9.06118C21.8572 8.82805 21.9031 8.5972 21.9924 8.38184C22.0817 8.16648 22.2126 7.97084 22.3776 7.80611Z" fill="#1E3050"/>
</svg>
